<svg xmlns="http://www.w3.org/2000/svg" xmlns:xlink="http://www.w3.org/1999/xlink" width="1056" height="816" viewBox="0 0 792 612"><clipPath id="a"><path transform="scale(.24)" d="M0 0h3300v2549.197H0z" fill-rule="evenodd"/></clipPath><g clip-path="url(#a)"><path d="M0 0h792v611.807H0z" fill="#fff"/></g><clipPath id="b"><path transform="scale(.24)" d="M14.133 14.133H3300v2490.899H14.133z" fill-rule="evenodd"/></clipPath><g clip-path="url(#b)"><path stroke-miterlimit="10" fill="none" stroke="#00b2e3" d="M39.996 21.531h714.918v561.537H39.996z" stroke-width=".97682"/><path stroke-miterlimit="10" fill="none" stroke="#00b2e3" d="M38.059 23.468H756.85V581.13H38.06z" stroke-width=".97682"/><path stroke-miterlimit="10" fill="none" stroke="#00b2e3" d="M36.123 25.405h722.664v553.79H36.123z" stroke-width=".97682"/><path stroke-miterlimit="10" fill="none" stroke="#00b2e3" d="M34.187 27.34h726.537V577.26H34.187z" stroke-width=".97682"/><path stroke-miterlimit="10" fill="none" stroke="#00b2e3" d="M32.25 29.277h730.41v546.045H32.25z" stroke-width=".97682"/><path stroke-miterlimit="10" fill="none" stroke="#00b2e3" d="M30.314 31.214h734.283v542.172H30.314z" stroke-width=".97682"/><path stroke-miterlimit="10" fill="none" stroke="#00b2e3" d="M28.378 33.15h738.156v538.3H28.378z" stroke-width=".97682"/><path stroke-miterlimit="10" fill="none" stroke="#00b2e3" d="M26.44 35.086h742.03v534.427H26.44z" stroke-width=".97682"/><path stroke-miterlimit="10" fill="none" stroke="#01b0e0" d="M209.395 275.17h376.602M157.072 378.846H638.32M81.205 501.112h199.168" stroke-width=".97682"/><path d="M149.115 494.538c1.068-1.413 2.134-2.826 3.203-4.239-1.435-1.49-.912-2.989 1.385-3.969l-1.921 2.571.563.5c2.622-.69 3.466-3.277 4.905-5.26l-2.286 1.169c.712-.65 1.333-1.469 2.157-1.91 1.284-.69 1.872-1.668 1.957-3.357-2.85.387-5.742.46-8.41 1.273-1.414.432-2.426 2.16-3.642 3.28-1.405 1.296-2.956 2.458-4.216 3.88-1.183 1.338-2.17 2.88-3.066 4.433-3.246 5.633-6.113 11.51-9.687 16.92-5.737 8.687-12.978 15.97-22.948 19.684-6.815 2.538-13.925 3.182-21.112 1.072-6.923-2.032-9.357-9.452-8.247-14.67 1.403-6.597 5.27-11.663 10.357-15.934 5.703-4.785 12.494-7.34 19.364-9.813 10.97-3.948 22.287-6.53 33.777-8.233 3.402-.504 5.002-1.964 6.415-4.878 2.157-4.446 4.779-8.684 7.428-12.867 1.251-1.976 3.473-2.947 5.755-3.292 1.893-.286 2.769.995 2.183 2.823-1.163 3.629-3.417 6.626-5.68 9.598-1.683 2.212-3.497 4.323-5.525 6.812 2.742-.3 5.168-.523 7.575-.875.394-.057.759-.645 1.042-1.054 1.056-1.528 2.055-3.095 3.116-4.62a3.717 3.717 0 011.105-1.058c.297-.177.743-.106 1.122-.146-.007.364.116.801-.044 1.077-.772 1.339-1.618 2.636-2.445 3.944-.294.465-.605.92-.702 1.693.661-.2 1.385-.29 1.974-.618 5.733-3.203 11.458-6.42 17.142-9.713.674-.39 1.257-1.17 1.57-1.903.932-2.18 1.709-4.428 2.546-6.649l.486.14-2.447 7.252c1.04-.45 1.734-.716 2.399-1.04 11.384-5.571 23.155-10.005 35.72-12.083 5.632-.93 11.287-1.535 16.994-.735.914.128 1.83.375 2.694.704 2.304.88 2.805 2.637 1.106 4.47-1.323 1.427-2.8 2.813-4.456 3.808-4.282 2.577-8.7 4.929-13.064 7.37l-.268-.476c1.944-1.05 3.904-2.07 5.828-3.153 3.62-2.039 7.486-3.735 10.392-6.82.797-.846 1.819-2.228 1.602-3.072-.216-.84-1.81-1.755-2.883-1.87-3.322-.357-6.708-.67-10.026-.423-10.843.809-21.274 3.535-31.333 7.603-4.695 1.9-9.27 4.1-13.845 6.278-.736.351-1.354 1.217-1.738 1.99-1.358 2.724-2.59 5.511-4.044 8.65 1.862-.761 3.423-1.45 5.02-2.043 5.029-1.868 10.028-3.84 15.136-5.469 1.68-.536 3.7-.415 5.486-.121 2.854.469 3.994 2.65 3.985 5.516-.009 2.871-1.605 4.92-2.961 7.08-2.14 3.41-4.523 6.67-6.816 9.983-.134.195-.384.308-.798.313.135-.265.246-.545.408-.792 2.55-3.888 5.178-7.729 7.626-11.68.851-1.374 1.45-2.974 1.837-4.551.663-2.698-.85-4.78-3.565-5.307-3.138-.61-6.11.242-8.957 1.292-5.512 2.035-10.95 4.28-16.369 6.556-.681.286-1.2 1.207-1.57 1.947-1.358 2.724-2.622 5.494-3.72 8.416.299-.467.525-1.008.911-1.388 1.24-1.215 2.51-2.405 3.843-3.515.251-.21.92-.128 1.255.063.184.105.228.8.076 1.095-1.395 2.702-2.846 5.375-4.284 8.054-.375.7-.764 1.39-1.147 2.086l-.432-.238 5.41-10.213-.414-.307c-1.6.663-2.87 1.805-3.842 3.235a139.128 139.128 0 00-4.127 6.48c-.816 1.356-2.019 1.406-3.231.987-1.024-.352-1.779-.236-2.493.508l1.937-2.446c-.416 1.022.29 1.396 1.028 1.386.653-.007 1.791-.304 1.87-.66.388-1.763.498-3.588.743-5.72l-3.649 4.937c1.755-2.921 3.364-5.904 3.736-9.426l.56.107v6.497c.103.002.206.006.31.01l5.258-10.689-.329-.188-13.464 6.178 2.317.903 2.174-1.816.412.377c-.177.397-.297.833-.54 1.185a245.122 245.122 0 01-3.738 5.317c-1.244 1.713-1.458 3.464-.5 5.05.64-.35 1.282-.7 1.925-1.053-.335.431-.593.975-1.022 1.272-1.114.772-1.966.298-2.07-1.098-.043-.561-.008-1.129-.352-1.935-.902.851-1.818 1.686-2.7 2.558-1.539 1.52-2.3 1.465-3.568-.384-.228.187-.466.352-.668.555-.744.74-1.581 1.645-2.647.946-.94-.617-1.863-1.474-1.326-2.967.228-.634.038-1.418.038-2.354l-1.866 1.172.037.035zm-4.44-12.463c-.997.112-1.908.15-2.793.323-6.33 1.235-12.712 2.265-18.962 3.82-5.85 1.456-11.617 3.318-17.32 5.291-8.79 3.041-17.004 7.082-22.713 14.874-2.82 3.851-5.138 7.936-4.705 12.94.469 5.427 3.123 9.406 8.555 10.885 5.315 1.448 10.659 1.23 15.976.068 9.125-1.996 15.892-7.689 21.925-14.38 4.843-5.372 8.283-11.7 11.673-18.036 1.103-2.062 2.171-4.141 3.256-6.213-2.126 1.227-3.947 2.665-5.837 4.005-.47.333-1.163.352-1.754.515 5.618-3.416 10.354-7.43 12.7-14.092zm21.512-2.986c-1.522.659-3.15 1.193-4.604 2.03-2.75 1.584-2.706 1.83-1.735 4.805.381 1.167.82 1.322 1.868.845 4.23-1.927 8.496-3.777 12.728-5.704 1.17-.533 2.743-.95 3.306-1.906 1.789-3.037 3.19-6.303 4.74-9.48l-.438-.39c-5.473 3.05-10.946 6.1-16.607 9.253.414.291.527.362.629.446.13.109.253.23.113.101zm-19.733 1.666c3.606.169 4.237-.306 5.702-2.13 2.421-3.02 4.83-6.054 7.076-9.203 1.192-1.669 2.11-3.553 2.98-5.422.272-.583.245-1.7-.136-2.084-.41-.415-1.452-.473-2.124-.306-2.152.536-3.777 1.937-4.959 3.755-1.716 2.641-3.39 5.32-4.923 8.07-1.296 2.324-2.37 4.773-3.616 7.32zm12.805 8.781l-.5-.712c-1.064.216-2.13.423-3.19.65-3.413.73-5.326 4.853-3.677 7.885.54.993 1.334 1.377 2.03.375 1.857-2.68 3.568-5.459 5.337-8.198zm-2.148 8.602c.553-.264.9-.328 1.092-.536 1.618-1.76 3.257-3.504 4.782-5.342.608-.735 1.013-1.668 1.378-2.565.218-.535.179-1.176.256-1.769-.567-.015-1.204-.208-1.692-.017-3.95 1.547-5.081 5.261-6.478 8.722-.14.347.413.973.662 1.507zm-13.87-11.598l.4.39 5.44-5.123-.367-.593c-1.022.34-2.374.387-2.994 1.085-1.066 1.2-1.677 2.805-2.48 4.241zm12.272 1.408l.365.629c1.166-.407 2.53-.584 3.4-1.335.352-.304-.375-1.86-.689-3.17a7428.36 7428.36 0 01-3.076 3.876zm5.24-9.198l.508.352 3.753-5.46-.58-.391-3.681 5.5zM209.34 491.865c.344-.572.595-1.233 1.045-1.703 1.628-1.7 2.668-3.646 2.86-6.02.023-.288.202-.564.547-.8l-.27 2.092 4.24-2.645.598.484c-.388.791-.698 1.634-1.18 2.364-1.043 1.581-2.228 3.07-3.244 4.668-.355.557-.382 1.322-.66 2.378 2.195-1.015 2.952-2.717 3.948-4.233.965-1.47 2.067-2.85 3.11-4.269l.451.32c-.974 1.453-1.946 2.908-2.925 4.357-1.01 1.497-1.826 3.023-.8 4.956l1.297-.455c-1.442 1.676-1.523 1.634-2.69-1.242-.09.018-.189.019-.272.057-.738.336-1.475.679-2.211 1.018-.029-.865-.354-1.871-.024-2.567.694-1.462 1.715-2.772 2.635-4.122.559-.82 1.18-1.598 1.582-2.557-2.31.567-3.61 2.171-4.536 4.17-.736 1.59-1.415 3.206-2.216 4.76-.282.544-.855.938-1.295 1.4-.204-.09-.408-.177-.612-.266.221-.73.444-1.461.669-2.196.003.502.003 1.007.003 1.513l.331.068 1.632-3.111c-.071-.037-.141-.074-.213-.11-.599.564-1.198 1.127-1.8 1.691z" fill="#2e3d49"/><path d="M149.082 494.508c-1.55 1.505-2.996 3.14-4.686 4.467-1.115.875-2.105-.052-2.778-.966-.711.366-1.35.693-1.955 1.003 2.101-2.832 4.123-5.623 6.227-8.35.498-.644 1.27-1.078 1.917-1.608.153.112.307.223.46.336-.203.508-.3 1.102-.627 1.509a115.02 115.02 0 01-4.104 4.853c-.68.758-1.57 1.676-.667 2.433.469.394 1.982-.007 2.726-.498 1.093-.722 1.912-1.855 2.866-2.794.17-.167.434-.24.654-.356l-.033-.029zM202.63 492.371c-.3.196-.884.483-.855.574.427 1.346-.657 1.477-1.342 1.928l-.4-.214c.446-.843.787-1.767 1.358-2.517 2.156-2.827 4.425-5.57 6.578-8.4a168.345 168.345 0 004.968-6.908c.588-.86.956-1.871 1.534-2.781.105 1.648-.83 2.978-1.711 4.25-1.937 2.796-3.982 5.519-5.981 8.27l-1.353 1.574c-.755.899-1.556 1.763-2.244 2.71-.304.419-.376 1.004-.553 1.514zM183.331 493.593l3.91-7.385c.083.03.168.058.252.087l-2.914 7.762c3.077-1.312 3.767-4.52 6.116-5.89l.375.355c-.676.997-1.384 1.974-2.024 2.994-1.197 1.908-.937 2.383 1.293 2.484.137.006.27.067.462.118-1.597.759-2.29.507-3.56-1.388-.454.54-.838 1.084-1.309 1.537-.816.785-1.587 1.164-1.907-.442-.028-.136-.484-.186-.74-.275l.046.043zM179.26 494.511c-.452.569-.848 1.2-1.385 1.673-.193.169-.992.054-1.054-.108-.264-.68-.68-1.565-.446-2.127.65-1.561 1.425-3.137 2.474-4.448 1.208-1.508 2.684-2.839 4.214-4.024.42-.326 1.667-.1 2.14.319.393.347.207 1.349-.004 2.013-.305-.644-.586-1.815-.918-1.828-.76-.033-1.834.276-2.268.84-1.687 2.193-3.21 4.516-4.703 6.85-.284.443-.163 1.147-.265 2.043l2.244-1.172-.028-.03zM228.132 491.506c-1.672 1.299-1.706 1.288-4.019-1.22-.452.483-.83 1.066-1.365 1.403-.428.27-1.171.477-1.54.278-.34-.183-.65-1.07-.488-1.431.988-2.213 2.114-4.363 3.194-6.534l.554.295c-.636 1.139-1.336 2.248-1.89 3.425-.533 1.133-1.565 2.201-.744 4.032l4.63-4.485c-.44 1.157-1.221 2.194-1.09 3.1.196 1.358 1.531 1.397 2.758 1.137z" fill="#2e3d49"/><path d="M179.29 494.541c1.318-2.433 2.625-4.872 3.969-7.29.112-.203.47-.27 1.048-.576-1.07 2.807-3.259 4.86-2.963 8.13l1.988-1.211-.047-.043c-.542.64-1.012 1.383-1.677 1.846-.165.115-.964-.684-1.645-1.192l-.702.306.029.03zM205.425 488.147l1.353-1.573c1.262-1.295 2.504-2.609 3.795-3.874.61-.597 1.31-1.1 1.97-1.646.166.107.33.215.495.323l-1.722 3.82-.387-.147.715-2.085-.273-.187-6.1 6.462.154-1.093zM210.46 486.492l-6.09 8.556c1.045-3.518 3.716-5.939 5.778-8.77.104.07.209.143.312.214z" fill="#2e3d49"/><path d="M265.665 150.247l-17.684 10.139.01 23.352c-.032 10.724 8.635 19.445 19.36 19.478a19.34 19.34 0 009.74-2.581l14.318-8.226c5.648-2.93 9.514-8.824 9.535-15.627l.001-24.387-3.503-2.05-14.373 8.112.012 25.388a15.763 15.763 0 01-1.602 6.914c-.427-.049-.534-.071-1.185-.193-.93-.192-2.77-.716-4.986-2.148a14.226 14.226 0 01-3.808-3.831 14.062 14.062 0 01-2.108-5.051c-.187-.931-.23-1.89-.226-2.852l.012-24.387-3.513-2.05zm7.801 48.21c-.958.402-1.961.71-2.98.915a14.938 14.938 0 01-3.092.313 15.969 15.969 0 01-3.205-.333 15.763 15.763 0 01-5.668-2.406 16.004 16.004 0 01-4.283-4.31 15.736 15.736 0 01-2.372-5.682c-.211-1.047-.25-2.126-.246-3.206l-.002-21.314 13.906-8.11.009 22.35h-.001c-.026 8.492 5.897 15.601 13.881 17.315-.312.373-.539.733-.884 1.076a15.954 15.954 0 01-5.063 3.392zm23.558-18.837a14.005 14.005 0 01-2.138 5.038 14.227 14.227 0 01-3.83 3.808c-.757.508-1.566.943-2.403 1.294-.939.405-1.743.631-2.649.814-.183.037-.46.07-.645.1.802-2.12 1.342-4.414 1.35-6.813l.004-23.356 10.589-6.084v22.35c-.001.96-.085 1.919-.278 2.849z" fill="#01b3e3"/><path d="M346.29 179.649c0 4.408-3.678 8.014-8.651 8.014s-8.558-3.605-8.558-8.014V163.83h-2.645v15.856c0 5.683 4.38 10.298 11.202 10.298 6.823 0 11.306-4.615 11.306-10.298l.003-15.866h-2.649l-.008 15.829zm28.201-15.816l-8.329-.013v25.823h8.277c7.69 0 12.918-4.76 12.918-12.92 0-8.087-5.175-12.89-12.866-12.89zm-.254 23.507l-5.426-.015v-21.188l5.426.006c6.268 0 10.496 3.768 10.496 10.58 0 6.85-4.191 10.617-10.496 10.617zm73.962.313c-6.087 0-10.439-4.99-10.439-11.111 0-6.047 4.352-10.71 10.365-10.71 4.812 0 7.8 2.841 7.8 2.841l1.348-1.857s-3.097-3.326-9.22-3.326c-7.327 0-12.917 5.657-12.917 13.089 0 7.468 5.444 13.415 13.026 13.415 6.306 0 9.805-3.98 9.805-3.98l-1.459-1.786s-3.133 3.425-8.31 3.425zm26.546 1.987h2.649v-25.818h-2.65v25.818zm17.878-23.502h9.269v23.505l2.645-.001.003-23.504h9.269v-2.317h-21.187v2.317zm54.789-2.318h-2.843l-8.215 11.892h-.072l-8.296-11.892h-2.88l9.892 14.717v11.106h2.648l-.008-11.106 9.774-14.717zm-137.651.003l-10.444 25.818h2.762l2.764-6.884 11.624-2.382 3.736 9.266h2.762l-10.443-25.818h-2.761zm-3.755 16.096l5.1-12.508h.071l4.308 10.565-9.48 1.943z" fill="#2d3c49"/><path stroke-miterlimit="10" fill="none" stroke="#00b2e3" d="M26.682 21.531h1.952v1.952h-1.952zM26.682 581.116h1.952v1.952h-1.952zM766.758 21.531h1.952v1.952h-1.952zM766.758 581.116h1.952v1.952h-1.952z" stroke-width=".97682"/></g><clipPath id="c"><path transform="scale(.24)" d="M14.133 14.133H3300v2490.899H14.133z" fill-rule="evenodd"/></clipPath><g clip-path="url(#c)"><symbol id="d"><path transform="matrix(.00049 0 0 -.00049 -.022 0)" d="M1085-1330L614-105 141-1330H45L568 0h91l522-1330h-96z"/></symbol><symbol id="e"><path transform="matrix(.00049 0 0 -.00049 -.093 0)" d="M902-1330H190V0h734v-72H282v-562h598v-72H282v-552h620v-72z"/></symbol><symbol id="f"><path transform="matrix(.00049 0 0 -.00049 -.093 0)" d="M282 0v-571h331L919 0h99L699-585c143-51 309-165 309-376 0-231-184-369-433-369H190V0h92zm283-1258c220 0 343 117 343 315 0 161-132 268-266 300H282v-615h283z"/></symbol><symbol id="g"><path transform="matrix(.00049 0 0 -.00049 -.093 0)" d="M190 0h91v-1330h-91V0z"/></symbol><symbol id="h"><path transform="matrix(.00049 0 0 -.00049 -.093 0)" d="M880-1330H190V0h92v-634h552v-72H282v-552h598v-72z"/></symbol><symbol id="i"><path transform="matrix(.00049 0 0 -.00049 -.093 0)" d="M504 0c370 0 640-261 640-668 0-379-221-662-640-662H190V0h314zM281-72v-1186h223c359 0 540 243 540 608 0 353-234 578-550 578H281z"/></symbol><use xlink:href="#d" transform="matrix(9.49722 0 0 -9.49722 295.056 79.709)" fill="#01b0e0"/><use xlink:href="#e" transform="matrix(9.49722 0 0 -9.49722 302.76 79.709)" fill="#01b0e0"/><use xlink:href="#f" transform="matrix(9.49722 0 0 -9.49722 309.367 79.709)" fill="#01b0e0"/><use xlink:href="#g" transform="matrix(9.49722 0 0 -9.49722 315.974 79.709)" fill="#01b0e0"/><use xlink:href="#h" transform="matrix(9.49722 0 0 -9.49722 319.614 79.709)" fill="#01b0e0"/><use xlink:href="#g" transform="matrix(9.49722 0 0 -9.49722 325.797 79.709)" fill="#01b0e0"/><use xlink:href="#e" transform="matrix(9.49722 0 0 -9.49722 329.436 79.709)" fill="#01b0e0"/><use xlink:href="#i" transform="matrix(9.49722 0 0 -9.49722 336.044 79.709)" fill="#01b0e0"/><use xlink:href="#j" transform="matrix(9.49722 0 0 -9.49722 342.827 81.73)" fill="#01b0e0"/><symbol id="k"><path transform="matrix(.00049 0 0 -.00049 -.054 .01)" d="M110-662c0 400 241 682 647 682 104 0 213-24 286-57l-26-68c-51 20-142 46-236 46-372 0-571-241-571-621s216-591 519-591c101 0 184 26 240 47l27-66c-66-30-163-60-260-60-392 0-626 291-626 688z"/></symbol><symbol id="l"><path transform="matrix(.00049 0 0 -.00049 -.022 0)" d="M45-1258h409V0h91v-1258h408v-72H45v72z"/></symbol><symbol id="m"><path transform="matrix(.00049 0 0 -.00049 -.022 0)" d="M1085 0h96L659-1330h-91L45 0h96l144-374h655L1085 0zM614-1226l299 780H312l302-780z"/></symbol><use xlink:href="#k" transform="matrix(9.49722 0 0 -9.49722 347.191 79.802)" fill="#01b0e0"/><use xlink:href="#e" transform="matrix(9.49722 0 0 -9.49722 354.17 79.709)" fill="#01b0e0"/><use xlink:href="#f" transform="matrix(9.49722 0 0 -9.49722 360.777 79.709)" fill="#01b0e0"/><use xlink:href="#l" transform="matrix(9.49722 0 0 -9.49722 366.712 79.709)" fill="#01b0e0"/><use xlink:href="#g" transform="matrix(9.49722 0 0 -9.49722 373.568 79.709)" fill="#01b0e0"/><use xlink:href="#h" transform="matrix(9.49722 0 0 -9.49722 377.207 79.709)" fill="#01b0e0"/><use xlink:href="#g" transform="matrix(9.49722 0 0 -9.49722 383.39 79.709)" fill="#01b0e0"/><use xlink:href="#k" transform="matrix(9.49722 0 0 -9.49722 386.66 79.802)" fill="#01b0e0"/><use xlink:href="#m" transform="matrix(9.49722 0 0 -9.49722 392.965 79.709)" fill="#01b0e0"/><use xlink:href="#l" transform="matrix(9.49722 0 0 -9.49722 399.572 79.709)" fill="#01b0e0"/><use xlink:href="#e" transform="matrix(9.49722 0 0 -9.49722 406.428 79.709)" fill="#01b0e0"/><use xlink:href="#j" transform="matrix(9.49722 0 0 -9.49722 412.363 81.73)" fill="#01b0e0"/><symbol id="n"><path transform="matrix(.00049 0 0 -.00049 -.054 .01)" d="M709-59c-301 0-499-246-499-621 0-352 207-591 486-591 302 0 500 246 500 621 0 353-206 591-487 591zm-13 79c355 0 600-281 600-688 0-399-244-682-587-682-353 0-599 282-599 688 0 398 244 682 586 682z"/></symbol><use xlink:href="#n" transform="matrix(9.49722 0 0 -9.49722 416.728 79.802)" fill="#01b0e0"/><use xlink:href="#h" transform="matrix(9.49722 0 0 -9.49722 424.978 79.709)" fill="#01b0e0"/><use xlink:href="#j" transform="matrix(9.49722 0 0 -9.49722 430.49 81.73)" fill="#01b0e0"/><symbol id="o"><path transform="matrix(.00049 0 0 -.00049 -.093 0)" d="M190 0h92v-1241L798-188h78l517-1053V0h91v-1330h-138L837-295 328-1330H190V0z"/></symbol><symbol id="p"><path transform="matrix(.00049 0 0 -.00049 -.093 0)" d="M281 0v-551h262c261 0 444-145 444-393 0-239-172-386-433-386H190V0h91zm262-1258c232 0 344 119 344 332 0 194-125 303-333 303H281v-635h262z"/></symbol><symbol id="q"><path transform="matrix(.00049 0 0 -.00049 -.093 0)" d="M872-72H281v-1258h-91V0h682v-72z"/></symbol><symbol id="r"><path transform="matrix(.00049 0 0 -.00049 -.093 0)" d="M1028 0h124v-1330h-92v1218L314-1330H190V0h92v-1218L1028 0z"/></symbol><use xlink:href="#k" transform="matrix(9.49722 0 0 -9.49722 434.854 79.802)" fill="#01b0e0"/><use xlink:href="#n" transform="matrix(9.49722 0 0 -9.49722 441.461 79.802)" fill="#01b0e0"/><use xlink:href="#o" transform="matrix(9.49722 0 0 -9.49722 449.712 79.709)" fill="#01b0e0"/><use xlink:href="#p" transform="matrix(9.49722 0 0 -9.49722 458.863 79.709)" fill="#01b0e0"/><use xlink:href="#q" transform="matrix(9.49722 0 0 -9.49722 465.47 79.709)" fill="#01b0e0"/><use xlink:href="#e" transform="matrix(9.49722 0 0 -9.49722 471.23 79.709)" fill="#01b0e0"/><use xlink:href="#l" transform="matrix(9.49722 0 0 -9.49722 477.165 79.709)" fill="#01b0e0"/><use xlink:href="#g" transform="matrix(9.49722 0 0 -9.49722 484.02 79.709)" fill="#01b0e0"/><use xlink:href="#n" transform="matrix(9.49722 0 0 -9.49722 487.289 79.802)" fill="#01b0e0"/><use xlink:href="#r" transform="matrix(9.49722 0 0 -9.49722 495.54 79.709)" fill="#01b0e0"/><use xlink:href="#m" transform="matrix(10.17559 0 0 -10.17559 362.94 107.268)"/><symbol id="s"><path transform="matrix(.00049 0 0 -.00049 -.083 .01)" d="M936 0v-1024h-90v797C753-147 618-67 496-67c-164 0-237-99-237-299v-658h-89v674c0 226 93 370 303 370 148 0 289-92 383-175L872 0h64z"/></symbol><use xlink:href="#s" transform="matrix(10.17559 0 0 -10.17559 369.498 107.367)"/><symbol id="t"><path transform="matrix(.00049 0 0 -.00049 -.044 .213)" d="M451-334c202 0 363-159 363-359 0-92-29-170-78-229 50-35 139-51 218-39v-78c-121-16-214 25-261 74-61-51-140-79-227-79-202 0-363 159-363 359 0 163 90 282 219 329-64 39-125 101-125 173 0 69 45 116 89 137C184 0 90 89 90 198c0 151 163 238 400 238 273 0 447-123 447-288C937-13 788-89 636-89H404c-81 0-123-41-123-105 0-54 54-109 112-144 19 3 38 4 58 4zm6-74c-151 0-268-112-268-290 0-152 120-272 271-272s268 112 268 290c0 152-120 272-271 272zm55 767c-214 0-331-63-331-178 0-93 81-158 163-192h277c143 0 225 57 225 172 0 114-136 198-334 198z"/></symbol><use xlink:href="#t" transform="matrix(10.17559 0 0 -10.17559 374.612 109.434)"/><symbol id="u"><path transform="matrix(.00049 0 0 -.00049 -.046 .01)" d="M95-53c56 36 172 73 306 73 215 0 342-109 342-265 0-141-92-222-244-284l-92-37c-177-71-205-127-205-216 0-107 85-185 222-185 119 0 215 39 247 51l27-70c-36-17-134-58-264-58-179 0-324 108-324 269 0 121 71 206 212 263l92 37c175 70 237 128 237 236 0 113-97 182-238 182-131 0-236-37-288-64L95-53z"/></symbol><symbol id="v"><path transform="matrix(.00049 0 0 -.00049 -.022 .01)" d="M318-1270l-82 19-5 232-186 10v57h185v703C230-65 331 20 513 20c57 0 123-12 161-26l-17-68c-30 9-85 17-132 17-144 0-205-58-205-216v-679h316v-72H318v-246z"/></symbol><use xlink:href="#s" transform="matrix(10.17559 0 0 -10.17559 380.097 107.367)"/><use xlink:href="#u" transform="matrix(10.17559 0 0 -10.17559 385.236 107.367)"/><use xlink:href="#v" transform="matrix(10.17559 0 0 -10.17559 389.228 107.367)"/><use xlink:href="#w" transform="matrix(10.17559 0 0 -10.17559 392.621 109.235)"/><symbol id="x"><path transform="matrix(.00049 0 0 -.00049 -.063 .01)" d="M645-59c-267 0-415-250-415-621 0-360 159-591 402-591 268 0 416 251 416 621 0 361-159 591-403 591zm-13 79c334 0 515-290 515-688 0-390-190-681-502-681-332 0-515 290-515 687 0 391 191 682 502 682z"/></symbol><use xlink:href="#x" transform="matrix(10.17559 0 0 -10.17559 395.586 107.367)"/><symbol id="y"><path transform="matrix(.00049 0 0 -.00049 -.059 .01)" d="M733-992c0 150-125 239-210 275H347v72h73c220 0 359 108 359 307 0 180-169 279-339 279-142 0-232-33-292-57l-28 66c63 32 167 70 300 70 281 0 454-149 454-373 0-181-127-291-257-333 75-38 211-151 211-322 0-193-146-341-398-341-128 0-236 46-285 72l33 63c42-20 133-57 232-57 212 0 323 100 323 279z"/></symbol><use xlink:href="#y" transform="matrix(10.17559 0 0 -10.17559 401.896 107.367)"/><symbol id="z"><path transform="matrix(.00049 0 0 -.00049 -.02 .158)" d="M82 323c68-37 177-134 177-270 0-104-46-170-68-193l-91 26c32 35 68 95 68 178 0 105-80 173-128 209l42 50z"/></symbol><use xlink:href="#z" transform="matrix(10.17559 0 0 -10.17559 406.162 108.873)"/><symbol id="A"><path transform="matrix(.00049 0 0 -.00049 -.059 0)" d="M120 0h795v-72H227c441-472 644-685 644-925 0-217-164-352-400-352-147 0-262 62-314 93l32 60c45-25 153-75 268-75 210 0 314 106 314 287 0 179-131 354-651 906V0z"/></symbol><use xlink:href="#w" transform="matrix(10.17559 0 0 -10.17559 407.46 109.235)"/><use xlink:href="#A" transform="matrix(10.17559 0 0 -10.17559 410.376 107.268)"/><use xlink:href="#x" transform="matrix(10.17559 0 0 -10.17559 415.513 107.367)"/><use xlink:href="#A" transform="matrix(10.17559 0 0 -10.17559 421.823 107.268)"/><use xlink:href="#x" transform="matrix(10.17559 0 0 -10.17559 426.96 107.367)"/><symbol id="B"><path transform="matrix(.00049 0 0 -.00049 -.022 0)" d="M504 0h91v-519l458-811h-95L550-595l-410-735H45l459 811V0z"/></symbol><use xlink:href="#B" transform="matrix(27.1349 0 0 -27.1349 330.243 258.206)" fill="#2e3d49"/><symbol id="C"><path transform="matrix(.00049 0 0 -.00049 -.08 0)" d="M190-1024V0h90v-1024h-90zm-26-322c0 37 31 70 66 70 42 0 75-34 75-79 0-38-31-69-66-69-42 0-75 33-75 78z"/></symbol><symbol id="D"><path transform="matrix(.00049 0 0 -.00049 -.093 0)" d="M190-1024V0h90v-797c91-80 223-162 345-162 160 0 231 101 231 301V0h89v-797c92-80 224-162 345-162 161 0 231 101 231 301V0h90v-674c0-226-91-370-298-370-135 0-268 76-394 189-42-120-131-189-271-189-147 0-285 92-378 175l-16-155h-64z"/></symbol><use xlink:href="#C" transform="matrix(27.1349 0 0 -27.1349 345.811 258.206)" fill="#2e3d49"/><use xlink:href="#D" transform="matrix(27.1349 0 0 -27.1349 352.515 258.206)" fill="#2e3d49"/><symbol id="E"><path transform="matrix(.00049 0 0 -.00049 -.054 .01)" d="M887-503c11-33 31-106 31-172 0-235-128-369-350-369-276 0-458 215-458 541 0 311 193 523 480 523 87 0 206-21 276-51l-25-66c-63 24-166 40-239 40-258 0-393-172-397-446h682zM554-967c172 0 273 94 273 286 0 47-3 83-12 110H206c11-229 139-396 348-396z"/></symbol><use xlink:href="#E" transform="matrix(27.1349 0 0 -27.1349 375.198 258.47)" fill="#2e3d49"/><symbol id="F"><path transform="matrix(.00049 0 0 -.00049 -.093 0)" d="M190-1024V0h90v-797c93-80 231-162 355-162 168 0 242 101 242 301V0h90v-674c0-226-96-370-309-370-151 0-292 92-388 175l-16-155h-64z"/></symbol><use xlink:href="#F" transform="matrix(27.1349 0 0 -27.1349 389.826 258.206)" fill="#2e3d49"/><use xlink:href="#t" transform="matrix(27.1349 0 0 -27.1349 403.764 263.982)" fill="#2e3d49"/><use xlink:href="#w" transform="matrix(27.1349 0 0 -27.1349 415.61 263.452)" fill="#2e3d49"/><symbol id="G"><path transform="matrix(.00049 0 0 -.00049 -.046 0)" d="M95-82V0h885v-72H186l750-1176v-82H139v72h702L95-82z"/></symbol><use xlink:href="#G" transform="matrix(27.1349 0 0 -27.1349 422.91 258.206)" fill="#2e3d49"/><symbol id="H"><path transform="matrix(.00049 0 0 -.00049 -.093 0)" d="M190-1460V0h90v-797c93-80 231-162 355-162 168 0 242 101 242 301V0h90v-674c0-226-96-370-309-370-145 0-282 85-378 166v-602l-90 20z"/></symbol><use xlink:href="#H" transform="matrix(27.1349 0 0 -27.1349 438.16 258.206)" fill="#2e3d49"/><use xlink:href="#s" transform="matrix(27.1349 0 0 -27.1349 453.158 258.47)" fill="#2e3d49"/><symbol id="I"><path transform="matrix(.00049 0 0 -.00049 -.093 0)" d="M1058 0h92v-1330h-92v624H282v-624h-92V0h92v-634h776V0z"/></symbol><symbol id="J"><path transform="matrix(.00049 0 0 -.00049 -.049 .01)" d="M801-688c0-217-119-356-345-356-140 0-261 62-307 92l34 59c48-30 153-74 265-74 192 0 263 111 263 292v134c-86-10-168-13-248-5-210 20-363 125-363 301C100-89 227 20 387 20c121 0 246-64 334-177 0 117 58 177 146 177 36 0 70-13 80-19l-12-58c-8 4-27 12-54 12-49 0-80-32-80-109v-534zM195-258c0-131 102-201 264-221 84-10 168-9 252 1v251C636-128 522-57 410-57c-140 0-215-83-215-201z"/></symbol><use xlink:href="#I" transform="matrix(10.17559 0 0 -10.17559 330.379 292.972)" fill="#01b0e0"/><use xlink:href="#J" transform="matrix(10.17559 0 0 -10.17559 336.715 293.072)" fill="#01b0e0"/><use xlink:href="#u" transform="matrix(10.17559 0 0 -10.17559 341.778 293.072)" fill="#01b0e0"/><use xlink:href="#w" transform="matrix(10.17559 0 0 -10.17559 345.347 294.94)" fill="#01b0e0"/><use xlink:href="#u" transform="matrix(10.17559 0 0 -10.17559 348.138 293.072)" fill="#01b0e0"/><use xlink:href="#s" transform="matrix(10.17559 0 0 -10.17559 352.75 293.072)" fill="#01b0e0"/><symbol id="K"><path transform="matrix(.00049 0 0 -.00049 -.054 .01)" d="M206-521c0-272 161-446 404-446 80 0 145 19 188 35l29-65c-40-22-124-47-214-47-299 0-503 215-503 541 0 311 198 523 491 523 84 0 180-21 247-51l-25-65c-58 24-139 39-210 39-264 0-407-177-407-464z"/></symbol><use xlink:href="#K" transform="matrix(10.17559 0 0 -10.17559 357.964 293.072)" fill="#01b0e0"/><use xlink:href="#K" transform="matrix(10.17559 0 0 -10.17559 362.628 293.072)" fill="#01b0e0"/><use xlink:href="#E" transform="matrix(10.17559 0 0 -10.17559 367.292 293.072)" fill="#01b0e0"/><use xlink:href="#u" transform="matrix(10.17559 0 0 -10.17559 372.305 293.072)" fill="#01b0e0"/><use xlink:href="#u" transform="matrix(10.17559 0 0 -10.17559 376.969 293.072)" fill="#01b0e0"/><symbol id="L"><path transform="matrix(.00049 0 0 -.00049 -.022 0)" d="M317-1146c0-170 72-257 236-257 65 0 109 11 136 18l16-68c-30-12-85-27-149-27-201 0-326 133-326 322v139l-185 10v57h184V0h90v-952h264v-72H317v-122z"/></symbol><use xlink:href="#L" transform="matrix(10.17559 0 0 -10.17559 380.96 292.972)" fill="#01b0e0"/><use xlink:href="#s" transform="matrix(10.17559 0 0 -10.17559 384.973 293.072)" fill="#01b0e0"/><symbol id="M"><path transform="matrix(.00049 0 0 -.00049 -.093 0)" d="M190-1460V0h90v-1480l-90 20z"/></symbol><use xlink:href="#M" transform="matrix(10.17559 0 0 -10.17559 390.584 292.972)" fill="#01b0e0"/><use xlink:href="#M" transform="matrix(10.17559 0 0 -10.17559 393.128 292.972)" fill="#01b0e0"/><symbol id="N"><path transform="matrix(.00049 0 0 -.00049 -.017 .203)" d="M883-1024L535-81l-406-943H35L490 16c-88 222-166 323-322 323-40 0-77-10-101-18l-25 72c30 12 70 23 126 23 202 0 298-109 425-440l384-1000h-94z"/></symbol><use xlink:href="#N" transform="matrix(10.17559 0 0 -10.17559 394.902 295.04)" fill="#01b0e0"/><use xlink:href="#w" transform="matrix(10.17559 0 0 -10.17559 399.617 294.94)" fill="#01b0e0"/><use xlink:href="#K" transform="matrix(10.17559 0 0 -10.17559 402.482 293.072)" fill="#01b0e0"/><symbol id="O"><path transform="matrix(.00049 0 0 -.00049 -.054 .01)" d="M560 20c279 0 464-216 464-541 0-312-182-523-451-523-278 0-463 215-463 541 0 311 182 523 450 523zm13-77c-226 0-367-177-367-464 0-272 140-446 354-446 227 0 368 177 368 464 0 272-140 446-355 446z"/></symbol><use xlink:href="#O" transform="matrix(10.17559 0 0 -10.17559 407.146 293.072)" fill="#01b0e0"/><use xlink:href="#D" transform="matrix(10.17559 0 0 -10.17559 413.055 292.972)" fill="#01b0e0"/><symbol id="P"><path transform="matrix(.00049 0 0 -.00049 -.093 .193)" d="M190-1024V396h90V-63c89 52 199 83 276 83 282 0 502-212 502-541 0-308-166-523-446-523-118 0-260 64-342 171l-16-151h-64zm90 227c54-78 181-170 315-170 242 0 367 174 367 464 0 269-165 446-389 446-112 0-207-32-293-84v-656z"/></symbol><use xlink:href="#P" transform="matrix(10.17559 0 0 -10.17559 421.959 294.94)" fill="#01b0e0"/><use xlink:href="#M" transform="matrix(10.17559 0 0 -10.17559 427.895 292.972)" fill="#01b0e0"/><use xlink:href="#E" transform="matrix(10.17559 0 0 -10.17559 430.041 293.072)" fill="#01b0e0"/><use xlink:href="#v" transform="matrix(10.17559 0 0 -10.17559 434.806 293.072)" fill="#01b0e0"/><symbol id="Q"><path transform="matrix(.00049 0 0 -.00049 -.054 .01)" d="M978 0v-1480l-90 20v499c-89-52-199-83-276-83-282 0-502 212-502 541 0 308 166 523 446 523 118 0 260-64 342-171L914 0h64zm-90-227C834-149 707-57 573-57c-242 0-367-174-367-464 0-269 165-446 389-446 112 0 207 32 293 84v656z"/></symbol><use xlink:href="#E" transform="matrix(10.17559 0 0 -10.17559 438.945 293.072)" fill="#01b0e0"/><use xlink:href="#Q" transform="matrix(10.17559 0 0 -10.17559 444.033 293.072)" fill="#01b0e0"/><use xlink:href="#w" transform="matrix(10.17559 0 0 -10.17559 449.223 294.94)" fill="#01b0e0"/><use xlink:href="#v" transform="matrix(10.17559 0 0 -10.17559 451.765 293.072)" fill="#01b0e0"/><use xlink:href="#H" transform="matrix(10.17559 0 0 -10.17559 456.302 292.972)" fill="#01b0e0"/><use xlink:href="#E" transform="matrix(10.17559 0 0 -10.17559 461.416 293.072)" fill="#01b0e0"/><symbol id="R"><path transform="matrix(.00049 0 0 -.00049 -.049 .01)" d="M100-68c72 44 211 88 364 88 262 0 425-138 425-342 0-162-110-275-305-354l-127-51c-194-78-254-152-254-297 0-151 130-247 299-247 117 0 219 29 294 56l27-70c-87-38-199-65-305-65-239 0-411 145-411 337 0 169 102 276 265 341l127 51c216 87 294 163 294 308 0 147-120 254-317 254-137 0-257-33-345-79l-31 70z"/></symbol><symbol id="S"><path transform="matrix(.00049 0 0 -.00049 -.054 .128)" d="M696 20c91 0 175-19 250-53l302 296 62-67-296-267c175-115 282-328 282-597 0-399-244-682-587-682-353 0-599 282-599 688 0 398 244 682 586 682zm13-79c-301 0-499-246-499-621 0-352 207-591 486-591 302 0 500 246 500 621 0 353-206 591-487 591z"/></symbol><use xlink:href="#R" transform="matrix(22.3863 0 0 -22.3863 277.318 369.508)" fill="#2e3d49"/><use xlink:href="#S" transform="matrix(22.3863 0 0 -22.3863 288.45 372.164)" fill="#2e3d49"/><use xlink:href="#q" transform="matrix(22.3863 0 0 -22.3863 304.589 369.29)" fill="#2e3d49"/><use xlink:href="#w" transform="matrix(22.3863 0 0 -22.3863 312.25 373.618)" fill="#2e3d49"/><use xlink:href="#r" transform="matrix(22.3863 0 0 -22.3863 319.428 369.29)" fill="#2e3d49"/><use xlink:href="#J" transform="matrix(22.3863 0 0 -22.3863 333.284 369.508)" fill="#2e3d49"/><use xlink:href="#F" transform="matrix(22.3863 0 0 -22.3863 345.291 369.29)" fill="#2e3d49"/><use xlink:href="#O" transform="matrix(22.3863 0 0 -22.3863 356.712 369.508)" fill="#2e3d49"/><use xlink:href="#Q" transform="matrix(22.3863 0 0 -22.3863 369.007 369.508)" fill="#2e3d49"/><use xlink:href="#E" transform="matrix(22.3863 0 0 -22.3863 381.727 369.508)" fill="#2e3d49"/><use xlink:href="#t" transform="matrix(22.3863 0 0 -22.3863 393.38 374.055)" fill="#2e3d49"/><symbol id="T"><path transform="matrix(.00049 0 0 -.00049 -.093 0)" d="M190-1024L191 0h89v-790c81-71 205-139 342-157v-96c-126 17-260 93-351 184l-17-165h-64z"/></symbol><use xlink:href="#T" transform="matrix(22.3863 0 0 -22.3863 405.92 369.29)" fill="#2e3d49"/><use xlink:href="#E" transform="matrix(22.3863 0 0 -22.3863 412.254 369.508)" fill="#2e3d49"/><use xlink:href="#E" transform="matrix(22.3863 0 0 -22.3863 423.701 369.508)" fill="#2e3d49"/><use xlink:href="#w" transform="matrix(22.3863 0 0 -22.3863 433.51 373.618)" fill="#2e3d49"/><use xlink:href="#p" transform="matrix(22.3863 0 0 -22.3863 440.687 369.29)" fill="#2e3d49"/><use xlink:href="#T" transform="matrix(22.3863 0 0 -22.3863 452.135 369.29)" fill="#2e3d49"/><use xlink:href="#O" transform="matrix(22.3863 0 0 -22.3863 458.468 369.508)" fill="#2e3d49"/><use xlink:href="#t" transform="matrix(22.3863 0 0 -22.3863 470.545 374.055)" fill="#2e3d49"/><use xlink:href="#T" transform="matrix(22.3863 0 0 -22.3863 483.085 369.29)" fill="#2e3d49"/><use xlink:href="#J" transform="matrix(22.3863 0 0 -22.3863 489.733 369.508)" fill="#2e3d49"/><use xlink:href="#D" transform="matrix(22.3863 0 0 -22.3863 501.74 369.29)" fill="#2e3d49"/><symbol id="U"><path transform="matrix(.00049 0 0 -.00049 -.054 .01)" d="M1083-660H711v72h280v478c-45 21-140 51-249 51-346 0-532-241-532-621s216-591 543-591c110 0 211 30 260 49l28-68c-47-23-165-60-281-60-416 0-650 291-650 688 0 400 228 682 618 682 143 0 281-40 355-90v-590z"/></symbol><use xlink:href="#r" transform="matrix(10.85396 0 0 -10.85396 314.973 396)" fill="#01b0e0"/><use xlink:href="#m" transform="matrix(10.85396 0 0 -10.85396 324.668 396)" fill="#01b0e0"/><use xlink:href="#r" transform="matrix(10.85396 0 0 -10.85396 335.053 396)" fill="#01b0e0"/><use xlink:href="#n" transform="matrix(10.85396 0 0 -10.85396 345.093 396.106)" fill="#01b0e0"/><use xlink:href="#i" transform="matrix(10.85396 0 0 -10.85396 356.404 396)" fill="#01b0e0"/><use xlink:href="#e" transform="matrix(10.85396 0 0 -10.85396 366.444 396)" fill="#01b0e0"/><use xlink:href="#U" transform="matrix(10.85396 0 0 -10.85396 374.788 396.106)" fill="#01b0e0"/><use xlink:href="#f" transform="matrix(10.85396 0 0 -10.85396 384.828 396)" fill="#01b0e0"/><use xlink:href="#e" transform="matrix(10.85396 0 0 -10.85396 394.02 396)" fill="#01b0e0"/><use xlink:href="#e" transform="matrix(10.85396 0 0 -10.85396 402.788 396)" fill="#01b0e0"/><use xlink:href="#j" transform="matrix(10.85396 0 0 -10.85396 410.788 398.31)" fill="#01b0e0"/><use xlink:href="#p" transform="matrix(10.85396 0 0 -10.85396 417.78 396)" fill="#01b0e0"/><use xlink:href="#f" transform="matrix(10.85396 0 0 -10.85396 426.548 396)" fill="#01b0e0"/><use xlink:href="#n" transform="matrix(10.85396 0 0 -10.85396 435.316 396.106)" fill="#01b0e0"/><use xlink:href="#U" transform="matrix(10.85396 0 0 -10.85396 446.204 396.106)" fill="#01b0e0"/><use xlink:href="#f" transform="matrix(10.85396 0 0 -10.85396 456.244 396)" fill="#01b0e0"/><use xlink:href="#m" transform="matrix(10.85396 0 0 -10.85396 464.667 396)" fill="#01b0e0"/><use xlink:href="#o" transform="matrix(10.85396 0 0 -10.85396 475.052 396)" fill="#01b0e0"/><symbol id="V"><path transform="matrix(.00049 0 0 -.00049 -.076 .01)" d="M247-1330h-92v826c0 331 176 524 465 524 299 0 479-199 479-531v-819h-92v834c0 277-142 437-374 437-243 0-386-161-386-460v-811z"/></symbol><use xlink:href="#V" transform="matrix(6.10535 0 0 -6.10535 359 527.494)" fill="#282a2c"/><use xlink:href="#Q" transform="matrix(6.10535 0 0 -6.10535 362.68 527.494)" fill="#282a2c"/><use xlink:href="#J" transform="matrix(6.10535 0 0 -6.10535 366.043 527.494)" fill="#282a2c"/><use xlink:href="#K" transform="matrix(6.10535 0 0 -6.10535 369.04 527.494)" fill="#282a2c"/><use xlink:href="#C" transform="matrix(6.10535 0 0 -6.10535 371.745 527.435)" fill="#282a2c"/><use xlink:href="#v" transform="matrix(6.10535 0 0 -6.10535 372.663 527.494)" fill="#282a2c"/><use xlink:href="#N" transform="matrix(6.10535 0 0 -6.10535 374.753 528.675)" fill="#282a2c"/><use xlink:href="#w" transform="matrix(6.10535 0 0 -6.10535 377.497 528.615)" fill="#282a2c"/><use xlink:href="#H" transform="matrix(6.10535 0 0 -6.10535 379.455 527.435)" fill="#282a2c"/><use xlink:href="#J" transform="matrix(6.10535 0 0 -6.10535 382.578 527.494)" fill="#282a2c"/><use xlink:href="#u" transform="matrix(6.10535 0 0 -6.10535 385.531 527.494)" fill="#282a2c"/><use xlink:href="#w" transform="matrix(6.10535 0 0 -6.10535 387.673 528.615)" fill="#282a2c"/><use xlink:href="#K" transform="matrix(6.10535 0 0 -6.10535 389.392 527.494)" fill="#282a2c"/><use xlink:href="#O" transform="matrix(6.10535 0 0 -6.10535 391.936 527.494)" fill="#282a2c"/><symbol id="W"><path transform="matrix(.00049 0 0 -.00049 -.022 .193)" d="M230-1019l-185 10v57h184V396h90V-952h460V0h90v-1024H317v-72c0-225 98-306 289-306 108 0 183 23 228 38l21-68c-49-19-133-48-246-48-232 0-379 134-379 373v88z"/></symbol><use xlink:href="#F" transform="matrix(6.10535 0 0 -6.10535 395.566 527.435)" fill="#282a2c"/><use xlink:href="#W" transform="matrix(6.10535 0 0 -6.10535 398.526 528.615)" fill="#282a2c"/><use xlink:href="#T" transform="matrix(6.10535 0 0 -6.10535 401.926 527.435)" fill="#282a2c"/><use xlink:href="#D" transform="matrix(6.10535 0 0 -6.10535 404.046 527.435)" fill="#282a2c"/><use xlink:href="#E" transform="matrix(6.10535 0 0 -6.10535 409.319 527.494)" fill="#282a2c"/><use xlink:href="#Q" transform="matrix(6.10535 0 0 -6.10535 412.287 527.494)" fill="#282a2c"/><use xlink:href="#w" transform="matrix(6.10535 0 0 -6.10535 415.232 528.615)" fill="#282a2c"/><use xlink:href="#v" transform="matrix(6.10535 0 0 -6.10535 416.757 527.494)" fill="#282a2c"/><use xlink:href="#H" transform="matrix(6.10535 0 0 -6.10535 419.31 527.435)" fill="#282a2c"/><use xlink:href="#E" transform="matrix(6.10535 0 0 -6.10535 422.462 527.494)" fill="#282a2c"/><use xlink:href="#w" transform="matrix(6.10535 0 0 -6.10535 424.983 528.615)" fill="#282a2c"/><use xlink:href="#P" transform="matrix(6.10535 0 0 -6.10535 426.94 528.615)" fill="#282a2c"/><use xlink:href="#J" transform="matrix(6.10535 0 0 -6.10535 430.064 527.494)" fill="#282a2c"/><use xlink:href="#T" transform="matrix(6.10535 0 0 -6.10535 433.3 527.435)" fill="#282a2c"/><use xlink:href="#v" transform="matrix(6.10535 0 0 -6.10535 434.988 527.494)" fill="#282a2c"/><use xlink:href="#C" transform="matrix(6.10535 0 0 -6.10535 437.463 527.435)" fill="#282a2c"/><use xlink:href="#K" transform="matrix(6.10535 0 0 -6.10535 438.574 527.494)" fill="#282a2c"/><use xlink:href="#C" transform="matrix(6.10535 0 0 -6.10535 441.279 527.435)" fill="#282a2c"/><use xlink:href="#P" transform="matrix(6.10535 0 0 -6.10535 442.628 528.615)" fill="#282a2c"/><use xlink:href="#J" transform="matrix(6.10535 0 0 -6.10535 445.752 527.494)" fill="#282a2c"/><use xlink:href="#v" transform="matrix(6.10535 0 0 -6.10535 448.556 527.494)" fill="#282a2c"/><use xlink:href="#C" transform="matrix(6.10535 0 0 -6.10535 451.03 527.435)" fill="#282a2c"/><use xlink:href="#O" transform="matrix(6.10535 0 0 -6.10535 452.141 527.494)" fill="#282a2c"/><use xlink:href="#F" transform="matrix(6.10535 0 0 -6.10535 455.772 527.435)" fill="#282a2c"/><use xlink:href="#w" transform="matrix(6.10535 0 0 -6.10535 458.478 528.615)" fill="#282a2c"/><use xlink:href="#O" transform="matrix(6.10535 0 0 -6.10535 460.197 527.494)" fill="#282a2c"/><use xlink:href="#L" transform="matrix(6.10535 0 0 -6.10535 463.395 527.435)" fill="#282a2c"/><use xlink:href="#w" transform="matrix(6.10535 0 0 -6.10535 465.262 528.615)" fill="#282a2c"/><use xlink:href="#v" transform="matrix(6.10535 0 0 -6.10535 466.787 527.494)" fill="#282a2c"/><use xlink:href="#H" transform="matrix(6.10535 0 0 -6.10535 469.34 527.435)" fill="#282a2c"/><use xlink:href="#C" transform="matrix(6.10535 0 0 -6.10535 472.653 527.435)" fill="#282a2c"/><use xlink:href="#u" transform="matrix(6.10535 0 0 -6.10535 473.72 527.494)" fill="#282a2c"/><use xlink:href="#w" transform="matrix(6.10535 0 0 -6.10535 475.861 528.615)" fill="#282a2c"/><use xlink:href="#C" transform="matrix(6.10535 0 0 -6.10535 477.741 527.435)" fill="#282a2c"/><use xlink:href="#F" transform="matrix(6.10535 0 0 -6.10535 479.09 527.435)" fill="#282a2c"/><use xlink:href="#Q" transform="matrix(6.10535 0 0 -6.10535 482.244 527.494)" fill="#282a2c"/><use xlink:href="#C" transform="matrix(6.10535 0 0 -6.10535 485.797 527.435)" fill="#282a2c"/><symbol id="X"><path transform="matrix(.00049 0 0 -.00049 -.022 0)" d="M881-1024L509-100l-371-924H45L464 0h91l419-1024h-93z"/></symbol><use xlink:href="#X" transform="matrix(6.10535 0 0 -6.10535 486.714 527.435)" fill="#282a2c"/><use xlink:href="#C" transform="matrix(6.10535 0 0 -6.10535 490.037 527.435)" fill="#282a2c"/><use xlink:href="#Q" transform="matrix(6.10535 0 0 -6.10535 491.148 527.494)" fill="#282a2c"/><use xlink:href="#s" transform="matrix(6.10535 0 0 -6.10535 494.718 527.494)" fill="#282a2c"/><use xlink:href="#J" transform="matrix(6.10535 0 0 -6.10535 497.902 527.494)" fill="#282a2c"/><use xlink:href="#M" transform="matrix(6.10535 0 0 -6.10535 501.138 527.435)" fill="#282a2c"/><use xlink:href="#w" transform="matrix(6.10535 0 0 -6.10535 501.724 528.615)" fill="#282a2c"/><use xlink:href="#C" transform="matrix(6.10535 0 0 -6.10535 503.604 527.435)" fill="#282a2c"/><use xlink:href="#F" transform="matrix(6.10535 0 0 -6.10535 504.954 527.435)" fill="#282a2c"/><use xlink:href="#w" transform="matrix(6.10535 0 0 -6.10535 507.66 528.615)" fill="#282a2c"/><use xlink:href="#v" transform="matrix(6.10535 0 0 -6.10535 509.185 527.494)" fill="#282a2c"/><use xlink:href="#H" transform="matrix(6.10535 0 0 -6.10535 511.737 527.435)" fill="#282a2c"/><use xlink:href="#C" transform="matrix(6.10535 0 0 -6.10535 515.052 527.435)" fill="#282a2c"/><use xlink:href="#u" transform="matrix(6.10535 0 0 -6.10535 516.118 527.494)" fill="#282a2c"/><use xlink:href="#w" transform="matrix(6.10535 0 0 -6.10535 518.26 528.615)" fill="#282a2c"/><use xlink:href="#P" transform="matrix(6.10535 0 0 -6.10535 520.217 528.615)" fill="#282a2c"/><use xlink:href="#T" transform="matrix(6.10535 0 0 -6.10535 523.609 527.435)" fill="#282a2c"/><use xlink:href="#O" transform="matrix(6.10535 0 0 -6.10535 525.49 527.494)" fill="#282a2c"/><use xlink:href="#t" transform="matrix(6.10535 0 0 -6.10535 528.823 528.734)" fill="#282a2c"/><use xlink:href="#T" transform="matrix(6.10535 0 0 -6.10535 532.089 527.435)" fill="#282a2c"/><use xlink:href="#J" transform="matrix(6.10535 0 0 -6.10535 533.94 527.494)" fill="#282a2c"/><use xlink:href="#D" transform="matrix(6.10535 0 0 -6.10535 537.176 527.435)" fill="#282a2c"/><symbol id="Y"><path transform="matrix(.00049 0 0 -.00049 -.063 .01)" d="M130-50c0 37 31 70 66 70 42 0 75-34 75-79 0-38-31-69-66-69-42 0-75 33-75 78z"/></symbol><use xlink:href="#Y" transform="matrix(6.10535 0 0 -6.10535 542.51 527.494)" fill="#282a2c"/><use xlink:href="#w" transform="matrix(6.10535 0 0 -6.10535 543.274 528.615)" fill="#282a2c"/><use xlink:href="#k" transform="matrix(6.10535 0 0 -6.10535 358.865 533.854)" fill="#282a2c"/><use xlink:href="#O" transform="matrix(6.10535 0 0 -6.10535 362.257 533.854)" fill="#282a2c"/><use xlink:href="#F" transform="matrix(6.10535 0 0 -6.10535 365.887 533.794)" fill="#282a2c"/><use xlink:href="#W" transform="matrix(6.10535 0 0 -6.10535 368.847 534.975)" fill="#282a2c"/><use xlink:href="#T" transform="matrix(6.10535 0 0 -6.10535 372.247 533.794)" fill="#282a2c"/><use xlink:href="#D" transform="matrix(6.10535 0 0 -6.10535 374.367 533.794)" fill="#282a2c"/><use xlink:href="#w" transform="matrix(6.10535 0 0 -6.10535 379.193 534.975)" fill="#282a2c"/><use xlink:href="#P" transform="matrix(6.10535 0 0 -6.10535 381.15 534.975)" fill="#282a2c"/><use xlink:href="#T" transform="matrix(6.10535 0 0 -6.10535 384.543 533.794)" fill="#282a2c"/><use xlink:href="#O" transform="matrix(6.10535 0 0 -6.10535 386.424 533.854)" fill="#282a2c"/><use xlink:href="#t" transform="matrix(6.10535 0 0 -6.10535 389.756 535.094)" fill="#282a2c"/><use xlink:href="#T" transform="matrix(6.10535 0 0 -6.10535 393.022 533.794)" fill="#282a2c"/><use xlink:href="#J" transform="matrix(6.10535 0 0 -6.10535 394.874 533.854)" fill="#282a2c"/><use xlink:href="#D" transform="matrix(6.10535 0 0 -6.10535 398.11 533.794)" fill="#282a2c"/><use xlink:href="#w" transform="matrix(6.10535 0 0 -6.10535 402.936 534.975)" fill="#282a2c"/><use xlink:href="#K" transform="matrix(6.10535 0 0 -6.10535 404.655 533.854)" fill="#282a2c"/><use xlink:href="#O" transform="matrix(6.10535 0 0 -6.10535 407.2 533.854)" fill="#282a2c"/><use xlink:href="#D" transform="matrix(6.10535 0 0 -6.10535 410.83 533.794)" fill="#282a2c"/><use xlink:href="#P" transform="matrix(6.10535 0 0 -6.10535 416.341 534.975)" fill="#282a2c"/><use xlink:href="#M" transform="matrix(6.10535 0 0 -6.10535 419.733 533.794)" fill="#282a2c"/><use xlink:href="#E" transform="matrix(6.10535 0 0 -6.10535 420.767 533.854)" fill="#282a2c"/><use xlink:href="#v" transform="matrix(6.10535 0 0 -6.10535 423.54 533.854)" fill="#282a2c"/><use xlink:href="#C" transform="matrix(6.10535 0 0 -6.10535 426.015 533.794)" fill="#282a2c"/><use xlink:href="#O" transform="matrix(6.10535 0 0 -6.10535 427.126 533.854)" fill="#282a2c"/><use xlink:href="#F" transform="matrix(6.10535 0 0 -6.10535 430.757 533.794)" fill="#282a2c"/><use xlink:href="#w" transform="matrix(6.10535 0 0 -6.10535 433.463 534.975)" fill="#282a2c"/><use xlink:href="#J" transform="matrix(6.10535 0 0 -6.10535 435.152 533.854)" fill="#282a2c"/><use xlink:href="#v" transform="matrix(6.10535 0 0 -6.10535 437.956 533.854)" fill="#282a2c"/><use xlink:href="#w" transform="matrix(6.10535 0 0 -6.10535 439.823 534.975)" fill="#282a2c"/><use xlink:href="#K" transform="matrix(6.10535 0 0 -6.10535 441.542 533.854)" fill="#282a2c"/><use xlink:href="#O" transform="matrix(6.10535 0 0 -6.10535 444.086 533.854)" fill="#282a2c"/><use xlink:href="#F" transform="matrix(6.10535 0 0 -6.10535 447.716 533.794)" fill="#282a2c"/><use xlink:href="#W" transform="matrix(6.10535 0 0 -6.10535 450.676 534.975)" fill="#282a2c"/><use xlink:href="#T" transform="matrix(6.10535 0 0 -6.10535 454.076 533.794)" fill="#282a2c"/><use xlink:href="#D" transform="matrix(6.10535 0 0 -6.10535 456.196 533.794)" fill="#282a2c"/><use xlink:href="#Y" transform="matrix(6.10535 0 0 -6.10535 461.529 533.854)" fill="#282a2c"/><use xlink:href="#s" transform="matrix(6.10535 0 0 -6.10535 462.92 533.854)" fill="#282a2c"/><use xlink:href="#Q" transform="matrix(6.10535 0 0 -6.10535 466.133 533.854)" fill="#282a2c"/><use xlink:href="#J" transform="matrix(6.10535 0 0 -6.10535 469.495 533.854)" fill="#282a2c"/><use xlink:href="#K" transform="matrix(6.10535 0 0 -6.10535 472.492 533.854)" fill="#282a2c"/><use xlink:href="#C" transform="matrix(6.10535 0 0 -6.10535 475.197 533.794)" fill="#282a2c"/><use xlink:href="#v" transform="matrix(6.10535 0 0 -6.10535 476.115 533.854)" fill="#282a2c"/><use xlink:href="#N" transform="matrix(6.10535 0 0 -6.10535 478.205 535.035)" fill="#282a2c"/><use xlink:href="#Y" transform="matrix(6.10535 0 0 -6.10535 481.032 533.854)" fill="#282a2c"/><use xlink:href="#K" transform="matrix(6.10535 0 0 -6.10535 482.244 533.854)" fill="#282a2c"/><use xlink:href="#O" transform="matrix(6.10535 0 0 -6.10535 484.788 533.854)" fill="#282a2c"/><use xlink:href="#D" transform="matrix(6.10535 0 0 -6.10535 488.418 533.794)" fill="#282a2c"/><symbol id="Z"><path transform="matrix(.00049 0 0 -.00049 .02 .122)" d="M734-1585L-40 250h90l774-1835h-90z"/></symbol><use xlink:href="#Z" transform="matrix(6.10535 0 0 -6.10535 493.244 534.54)" fill="#282a2c"/><symbol id="aa"><path transform="matrix(.00049 0 0 -.00049 -.027 .01)" d="M416-1330v1064c0 135-70 207-207 207-63 0-108-13-129-24L55-18C91 4 156 20 205 20c202 0 302-107 302-301v-1049h-91z"/></symbol><use xlink:href="#aa" transform="matrix(6.10535 0 0 -6.10535 496.072 533.854)" fill="#282a2c"/><use xlink:href="#p" transform="matrix(6.10535 0 0 -6.10535 498.594 533.794)" fill="#282a2c"/><use xlink:href="#f" transform="matrix(6.10535 0 0 -6.10535 501.562 533.794)" fill="#282a2c"/><use xlink:href="#I" transform="matrix(6.10535 0 0 -6.10535 504.954 533.794)" fill="#282a2c"/><symbol id="ab"><path transform="matrix(.00049 0 0 -.00049 -.059 .01)" d="M784-380c0 171-124 321-363 321-138 0-222-35-273-57l-28 65c49 29 143 71 294 71 278 0 466-179 466-412 0-232-181-406-459-406-62 0-126 6-164 12l17-472h545v-72H192l-23 631c54-10 134-23 239-23 246 0 376 141 376 342z"/></symbol><use xlink:href="#ab" transform="matrix(6.10535 0 0 -6.10535 508.56 533.854)" fill="#282a2c"/><symbol id="ac"><path transform="matrix(.00049 0 0 -.00049 -.063 .01)" d="M707-1272c78 0 144 13 179 24l17-70c-34-15-90-32-183-32-423 0-590 400-590 776 0 372 169 594 438 594 257 0 433-167 433-404 0-252-187-397-415-397-174 0-300 83-359 145 3-301 148-636 480-636zM582-59c-241 0-355-190-355-493 50-59 185-151 345-151 180 0 334 88 334 337 0 198-137 307-324 307z"/></symbol><use xlink:href="#y" transform="matrix(6.10535 0 0 -6.10535 511.529 533.854)" fill="#282a2c"/><use xlink:href="#ac" transform="matrix(6.10535 0 0 -6.10535 514.526 533.854)" fill="#282a2c"/><use xlink:href="#G" transform="matrix(6.10535 0 0 -6.10535 517.814 533.794)" fill="#282a2c"/><symbol id="ad"><path transform="matrix(.00049 0 0 -.00049 -.093 .01)" d="M190-1460V-79c85 57 226 99 342 99 300 0 503-215 503-541 0-311-197-523-456-523-95 0-205 30-299 88v-524l-90 20zm749 957c0 272-160 446-400 446-100 0-170-20-259-60v-768l1 1c85-53 190-83 281-83 235 0 377 177 377 464z"/></symbol><use xlink:href="#R" transform="matrix(8.81884 0 0 -8.81884 88.202 516.497)" fill="#282a2c"/><use xlink:href="#E" transform="matrix(8.81884 0 0 -8.81884 92.485 516.497)" fill="#282a2c"/><use xlink:href="#ad" transform="matrix(8.81884 0 0 -8.81884 97.069 516.497)" fill="#282a2c"/><use xlink:href="#J" transform="matrix(8.81884 0 0 -8.81884 101.77 516.497)" fill="#282a2c"/><use xlink:href="#u" transform="matrix(8.81884 0 0 -8.81884 105.987 516.497)" fill="#282a2c"/><use xlink:href="#v" transform="matrix(8.81884 0 0 -8.81884 109.588 516.497)" fill="#282a2c"/><use xlink:href="#C" transform="matrix(8.81884 0 0 -8.81884 113.492 516.411)" fill="#282a2c"/><use xlink:href="#J" transform="matrix(8.81884 0 0 -8.81884 115.337 516.497)" fill="#282a2c"/><use xlink:href="#F" transform="matrix(8.81884 0 0 -8.81884 119.964 516.411)" fill="#282a2c"/><use xlink:href="#w" transform="matrix(8.81884 0 0 -8.81884 124.061 518.116)" fill="#282a2c"/><use xlink:href="#l" transform="matrix(8.81884 0 0 -8.81884 126.123 516.411)" fill="#282a2c"/><use xlink:href="#H" transform="matrix(8.81884 0 0 -8.81884 130.988 516.411)" fill="#282a2c"/><use xlink:href="#T" transform="matrix(8.81884 0 0 -8.81884 136.075 516.411)" fill="#282a2c"/><use xlink:href="#s" transform="matrix(8.81884 0 0 -8.81884 138.957 516.497)" fill="#282a2c"/><use xlink:href="#F" transform="matrix(8.81884 0 0 -8.81884 143.707 516.411)" fill="#282a2c"/><use xlink:href="#h" transform="matrix(8.81884 0 0 -8.81884 88.59 525.739)" fill="#282a2c"/><use xlink:href="#O" transform="matrix(8.81884 0 0 -8.81884 92.485 525.825)" fill="#282a2c"/><use xlink:href="#s" transform="matrix(8.81884 0 0 -8.81884 97.83 525.825)" fill="#282a2c"/><use xlink:href="#F" transform="matrix(8.81884 0 0 -8.81884 102.58 525.739)" fill="#282a2c"/><use xlink:href="#Q" transform="matrix(8.81884 0 0 -8.81884 107.324 525.825)" fill="#282a2c"/><use xlink:href="#E" transform="matrix(8.81884 0 0 -8.81884 112.412 525.825)" fill="#282a2c"/><use xlink:href="#T" transform="matrix(8.81884 0 0 -8.81884 116.996 525.739)" fill="#282a2c"/><use xlink:href="#z" transform="matrix(8.81884 0 0 -8.81884 118.47 527.13)" fill="#282a2c"/><use xlink:href="#w" transform="matrix(8.81884 0 0 -8.81884 119.822 527.444)" fill="#282a2c"/><use xlink:href="#V" transform="matrix(8.81884 0 0 -8.81884 122.357 525.825)" fill="#282a2c"/><use xlink:href="#Q" transform="matrix(8.81884 0 0 -8.81884 127.675 525.825)" fill="#282a2c"/><use xlink:href="#J" transform="matrix(8.81884 0 0 -8.81884 132.72 525.825)" fill="#282a2c"/><use xlink:href="#K" transform="matrix(8.81884 0 0 -8.81884 137.003 525.825)" fill="#282a2c"/><use xlink:href="#C" transform="matrix(8.81884 0 0 -8.81884 141.051 525.739)" fill="#282a2c"/><use xlink:href="#v" transform="matrix(8.81884 0 0 -8.81884 142.659 525.825)" fill="#282a2c"/><use xlink:href="#N" transform="matrix(8.81884 0 0 -8.81884 146.007 527.53)" fill="#282a2c"/></g></svg>